# Blender v2.78 (sub 0) OBJ File: ''
# www.blender.org
mtllib rock2.mtl
o Icosphere_Icosphere.002
v -0.000000 0.016418 0.152889
v 0.986164 0.046394 0.353510
v -0.506392 0.063368 0.582563
v -1.661031 0.046394 0.000000
v -0.589073 0.075270 -0.831830
v 1.343793 0.046394 -0.404218
v -0.317964 1.094782 0.437173
v -1.227332 0.871132 0.368764
v -1.225852 0.852474 -0.671327
v 0.513273 0.871132 -0.654044
v 1.241738 0.857662 -0.220837
v -0.676220 1.104949 -0.570391
v 0.143178 1.174932 -0.123879
v 0.577839 1.019113 0.262024
vn 0.0065 -0.9932 0.1162
vn 0.0277 -0.9995 0.0131
vn -0.0253 -0.9965 0.0791
vn -0.0133 -0.9986 -0.0517
vn -0.0020 -0.9983 -0.0585
vn 0.9042 0.0173 0.4268
vn 0.1520 0.1107 0.9822
vn -0.4426 -0.1616 0.8820
vn -0.5762 -0.3165 -0.7535
vn 0.2142 -0.0792 -0.9736
vn 0.2032 0.1759 0.9632
vn -0.1129 0.1589 0.9808
vn -0.8833 0.4688 -0.0097
vn 0.0075 0.2081 -0.9781
vn 0.4983 0.2503 -0.8301
vn 0.1996 0.8436 -0.4985
vn -0.2446 0.9648 0.0967
vn -0.4148 0.9098 -0.0169
vn 0.0054 0.3611 -0.9325
vn 0.1692 0.9520 -0.2549
vn -0.1119 0.9925 0.0498
vn 0.2824 0.9569 0.0683
vn 0.1288 0.9614 0.2432
vn 0.6068 0.3230 0.7263
usemtl None
s off
f 1//1 2//1 3//1
f 2//2 1//2 6//2
f 1//3 3//3 4//3
f 1//4 4//4 5//4
f 1//5 5//5 6//5
f 2//6 6//6 11//6
f 3//7 2//7 7//7
f 4//8 3//8 8//8
f 5//9 4//9 9//9
f 6//10 5//10 10//10
f 7//11 2//11 14//11
f 3//12 7//12 8//12
f 4//13 8//13 9//13
f 5//14 9//14 10//14
f 6//15 10//15 11//15
f 12//16 13//16 11//16
f 8//17 7//17 12//17
f 9//18 8//18 12//18
f 10//19 9//19 12//19
f 11//20 10//20 12//20
f 13//21 12//21 7//21
f 13//22 14//22 11//22
f 14//23 13//23 7//23
f 2//24 11//24 14//24
