# Blender v2.78 (sub 0) OBJ File: ''
# www.blender.org
mtllib tree2.mtl
o Cone_Cone.001
v 0.000000 0.732116 -1.000000
v 0.000000 4.374401 0.000000
v 0.866025 0.732116 -0.500000
v 0.866025 0.732116 0.500000
v -0.000000 0.732116 1.000000
v -0.866025 0.732116 0.500000
v -0.866025 0.732116 -0.500000
v -0.229380 -0.002385 0.270590
v -0.229380 0.756363 0.270590
v -0.229380 -0.002385 -0.270590
v -0.229380 0.756363 -0.270590
v 0.229380 -0.002385 0.270590
v 0.229380 0.756363 0.270590
v 0.229380 -0.002385 -0.270590
v 0.229380 0.756363 -0.270590
vn 0.4864 0.2313 -0.8425
vn 0.9729 0.2313 0.0000
vn 0.4864 0.2313 0.8425
vn -0.4864 0.2313 0.8425
vn -0.9729 0.2313 0.0000
vn -0.4864 0.2313 -0.8425
vn 0.0000 -1.0000 -0.0000
vn -1.0000 0.0000 0.0000
vn 0.0000 0.0000 -1.0000
vn 1.0000 0.0000 0.0000
vn 0.0000 0.0000 1.0000
vn 0.0000 1.0000 0.0000
usemtl None
s off
f 1//1 2//1 3//1
f 3//2 2//2 4//2
f 4//3 2//3 5//3
f 5//4 2//4 6//4
f 6//5 2//5 7//5
f 7//6 2//6 1//6
f 1//7 3//7 4//7 5//7 6//7 7//7
f 8//8 9//8 11//8 10//8
f 10//9 11//9 15//9 14//9
f 14//10 15//10 13//10 12//10
f 12//11 13//11 9//11 8//11
f 10//7 14//7 12//7 8//7
f 15//12 11//12 9//12 13//12
