# Blender v2.78 (sub 0) OBJ File: ''
# www.blender.org
mtllib tree3.mtl
o Cone.001_Cone.003
v 0.000000 3.361618 -1.000000
v 0.000000 7.636066 0.000000
v 0.866025 3.361618 -0.500000
v 0.866025 3.361618 0.500000
v -0.000000 3.361618 1.000000
v -0.866025 3.361618 0.500000
v -0.866025 3.361618 -0.500000
v 0.000000 0.793112 -1.200000
v 0.000000 5.971962 0.000000
v 1.039231 0.793112 -0.600000
v 1.039230 0.793112 0.600000
v -0.000000 0.793112 1.200000
v -1.039231 0.793112 0.600000
v -1.039231 0.793112 -0.600000
v -0.229380 -0.002384 0.270590
v -0.229380 0.756363 0.270590
v -0.229380 -0.002384 -0.270590
v -0.229380 0.756363 -0.270590
v 0.229380 -0.002384 0.270590
v 0.229380 0.756363 0.270590
v 0.229380 -0.002384 -0.270590
v 0.229380 0.756363 -0.270590
vn 0.4900 0.1986 -0.8488
vn 0.9801 0.1986 0.0000
vn 0.4900 0.1986 0.8488
vn -0.4900 0.1986 0.8488
vn -0.9801 0.1986 0.0000
vn -0.4900 0.1986 -0.8488
vn 0.0000 -1.0000 -0.0000
vn 0.4902 0.1967 -0.8491
vn 0.9805 0.1967 0.0000
vn 0.4902 0.1967 0.8491
vn -0.4902 0.1967 0.8491
vn -0.9805 0.1967 0.0000
vn -0.4902 0.1967 -0.8491
vn -1.0000 0.0000 0.0000
vn 0.0000 0.0000 -1.0000
vn 1.0000 0.0000 0.0000
vn 0.0000 0.0000 1.0000
vn 0.0000 1.0000 0.0000
usemtl None
s off
f 1//1 2//1 3//1
f 3//2 2//2 4//2
f 4//3 2//3 5//3
f 5//4 2//4 6//4
f 6//5 2//5 7//5
f 7//6 2//6 1//6
f 1//7 3//7 4//7 5//7 6//7 7//7
f 8//8 9//8 10//8
f 10//9 9//9 11//9
f 11//10 9//10 12//10
f 12//11 9//11 13//11
f 13//12 9//12 14//12
f 14//13 9//13 8//13
f 8//7 10//7 11//7 12//7 13//7 14//7
f 15//14 16//14 18//14 17//14
f 17//15 18//15 22//15 21//15
f 21//16 22//16 20//16 19//16
f 19//17 20//17 16//17 15//17
f 17//7 21//7 19//7 15//7
f 22//18 18//18 16//18 20//18
