<?xml version="1.0" encoding="utf-8"?>
<!-- Generator: Adobe Illustrator 15.1.0, SVG Export Plug-In . SVG Version: 6.00 Build 0)  -->
<!DOCTYPE svg PUBLIC "-//W3C//DTD SVG 1.1//EN" "http://www.w3.org/Graphics/SVG/1.1/DTD/svg11.dtd">
<svg version="1.1" id="Layer_1" xmlns="http://www.w3.org/2000/svg" xmlns:xlink="http://www.w3.org/1999/xlink" x="0px" y="0px"
	 width="307.775px" height="255.882px" viewBox="0 0 307.775 255.882" enable-background="new 0 0 307.775 255.882"
	 xml:space="preserve">
<g>
	<path fill="#CCCCCC" d="M138.265,99.923h-20.8c-3.7,0-6.9,1.3-9.4,3.8c-2.7,2.7-3.9,5.8-3.9,9.5v11.5c0,3.701,1.2,6.8,3.9,9.399
		c2.5,2.601,5.7,3.9,9.4,3.9h20.8c3.699,0,6.8-1.301,9.3-3.9c2.7-2.6,3.899-5.699,3.899-9.399v-11.5c0-3.7-1.199-6.8-3.899-9.5
		C145.065,101.223,141.964,99.923,138.265,99.923z"/>
	<path fill="#FFFFFF" d="M136.565,98.223h-16.8c-2.9,0-5.5,1.1-7.5,3.2c-2.1,2-3.1,4.6-3.1,7.5v9.3c0,3,1,5.6,3.1,7.6
		c2,2.101,4.6,3.1,7.5,3.1h16.8c2.899,0,5.5-1,7.5-3.1c2.2-2,3.2-4.6,3.2-7.6v-9.3c0-2.9-1-5.5-3.2-7.5
		C142.065,99.323,139.464,98.223,136.565,98.223z"/>
	<path fill="#CCCCCC" d="M195.916,99.924h-20.801c-3.699,0-6.899,1.199-9.399,3.898c-2.7,2.602-3.899,5.701-3.899,9.301v11.6
		c0,3.701,1.199,6.801,3.899,9.4c2.5,2.6,5.7,3.9,9.399,3.9h20.801c3.699,0,6.8-1.301,9.3-3.9c2.7-2.6,3.899-5.699,3.899-9.4v-11.6
		c0-3.6-1.199-6.699-3.899-9.301C202.715,101.124,199.615,99.924,195.916,99.924z"/>
	<path fill="#FFFFFF" d="M194.215,98.223h-16.8c-2.9,0-5.5,1.101-7.5,3.201c-2.1,2.1-3.1,4.6-3.1,7.5v9.299c0,3,1,5.601,3.1,7.601
		c2,2.101,4.6,3.101,7.5,3.101h16.8c2.899,0,5.5-1,7.5-3.101c2.2-2,3.2-4.601,3.2-7.601v-9.299c0-2.9-1-5.4-3.2-7.5
		C199.715,99.323,197.115,98.223,194.215,98.223z"/>
	<path fill="#CCCCCC" d="M138.014,145.324h-20.801c-3.699,0-6.899,1.199-9.399,3.898c-2.7,2.602-3.899,5.701-3.899,9.301v11.6
		c0,3.701,1.199,6.801,3.899,9.4c2.5,2.6,5.7,3.9,9.399,3.9h20.801c3.699,0,6.8-1.301,9.3-3.9c2.7-2.6,3.899-5.699,3.899-9.4v-11.6
		c0-3.6-1.199-6.699-3.899-9.301C144.814,146.523,141.713,145.324,138.014,145.324z"/>
	<path fill="#FFFFFF" d="M136.314,143.623h-16.8c-2.9,0-5.5,1.1-7.5,3.201c-2.1,2.1-3.1,4.6-3.1,7.5v9.299c0,3,1,5.6,3.1,7.6
		c2,2.102,4.6,3.102,7.5,3.102h16.8c2.899,0,5.5-1,7.5-3.102c2.2-2,3.2-4.6,3.2-7.6v-9.299c0-2.9-1-5.4-3.2-7.5
		C141.814,144.722,139.213,143.623,136.314,143.623z"/>
	<path fill="#CCCCCC" d="M194.565,145.324h-20.8c-3.7,0-6.801,1.199-9.4,3.898c-2.6,2.602-3.898,5.701-3.898,9.301v11.6
		c0,3.701,1.3,6.801,3.898,9.4c2.602,2.6,5.7,3.9,9.4,3.9h20.8c3.7,0,6.899-1.301,9.399-3.9c2.601-2.6,3.899-5.699,3.899-9.4v-11.6
		c0-3.6-1.3-6.699-3.899-9.301C201.464,146.523,198.265,145.324,194.565,145.324z"/>
	<path fill="#FFFFFF" d="M192.964,143.623h-16.799c-2.9,0-5.5,1.101-7.602,3.201c-2.1,2.1-3.1,4.6-3.1,7.5v9.299
		c0,3,1,5.601,3.1,7.601c2.102,2.101,4.7,3.101,7.602,3.101h16.799c2.899,0,5.399-1,7.5-3.101c2.101-2,3.101-4.601,3.101-7.601
		v-9.299c0-2.9-1-5.4-3.101-7.5C198.365,144.722,195.865,143.623,192.964,143.623z"/>
	<path fill="#CCCCCC" d="M80.365,145.324h-20.8c-3.6,0-6.8,1.199-9.4,3.898c-2.6,2.602-3.9,5.701-3.9,9.301v11.6
		c0,3.701,1.3,6.801,3.9,9.4s5.8,3.9,9.4,3.9h20.8c3.7,0,6.9-1.301,9.4-3.9c2.6-2.6,3.9-5.699,3.9-9.4v-11.6
		c0-3.6-1.3-6.699-3.9-9.301C87.265,146.523,84.065,145.324,80.365,145.324z"/>
	<path fill="#FFFFFF" d="M78.665,143.623h-16.7c-3,0-5.5,1.101-7.6,3.201c-2.1,2.1-3.1,4.6-3.1,7.5v9.299c0,3,1,5.601,3.1,7.601
		c2.1,2.101,4.6,3.101,7.6,3.101h16.7c3,0,5.5-1,7.6-3.101c2-2,3.1-4.601,3.1-7.601v-9.299c0-2.9-1.1-5.4-3.1-7.5
		C84.165,144.722,81.665,143.623,78.665,143.623z"/>
	<polygon fill="#333333" points="123.765,121.623 131.265,121.623 131.265,111.923 136.065,111.923 127.465,103.423 
		119.065,111.923 123.765,111.923 	"/>
	<polygon fill="#333333" points="176.365,154.824 176.365,162.222 186.065,162.222 186.065,167.023 194.565,158.523 
		186.065,150.023 186.065,154.824 	"/>
	<polygon fill="#333333" points="79.065,162.222 79.065,154.722 69.365,154.722 69.365,149.923 60.865,158.523 69.365,166.923 
		69.365,162.222 	"/>
	<polygon fill="#333333" points="131.265,150.023 123.765,150.023 123.765,159.824 119.065,159.824 127.565,168.222 
		136.065,159.824 131.265,159.824 	"/>
	<path fill="#CCCCCC" d="M194.964,195.123h-135.8c-3.7,0-6.8,1.201-9.4,3.9c-2.6,2.6-3.9,5.699-3.9,9.301v11.6
		c0,3.699,1.3,6.8,3.9,9.4c2.6,2.6,5.7,3.898,9.4,3.898h135.8c3.699,0,6.899-1.299,9.399-3.898c2.601-2.602,3.9-5.701,3.9-9.4v-11.6
		c0-3.602-1.302-6.701-3.9-9.301C201.865,196.324,198.666,195.123,194.964,195.123z"/>
	<path fill="#FFFFFF" d="M193.365,193.423h-131.8c-2.9,0-5.5,1.1-7.6,3.199c-2.1,2.1-3.1,4.6-3.1,7.5v9.301c0,3,1,5.6,3.1,7.6
		c2.1,2.1,4.7,3.1,7.6,3.1h131.8c2.9,0,5.4-1,7.5-3.1c2.1-2,3.1-4.6,3.1-7.6v-9.301c0-2.9-1-5.4-3.1-7.5
		C198.765,194.522,196.265,193.423,193.365,193.423z"/>
	<path fill="#CCCCCC" d="M186.728,20.766h-56.139c-6.43,0-11.814,2.085-16.332,6.776c-4.518,4.518-6.776,9.904-6.776,16.159v20.154
		c0,6.428,2.259,11.814,6.776,16.332c4.518,4.518,9.902,6.776,16.332,6.776h56.139c6.43,0,11.988-2.258,16.332-6.776
		c4.519-4.518,6.775-9.904,6.775-16.332V43.7c0-6.255-2.258-11.641-6.775-16.159C198.716,22.851,193.156,20.766,186.728,20.766z"/>
	<path fill="#FFFFFF" d="M183.949,17.813h-49.19c-5.038,0-9.557,1.91-13.205,5.559c-3.648,3.648-5.385,7.992-5.385,13.031v16.159
		c0,5.212,1.736,9.729,5.385,13.204c3.648,3.649,8.167,5.386,13.205,5.386h49.19c5.037,0,9.382-1.737,13.031-5.386
		c3.646-3.475,5.385-7.991,5.385-13.204V36.403c0-5.039-1.737-9.382-5.385-13.031C193.331,19.723,188.986,17.813,183.949,17.813z"/>
	<path fill="#CCCCCC" d="M245.176,182.93c-7.15,0-13-5.85-13-13v-18.308c0-7.15-3.426-13-7.612-13s-7.612-5.85-7.612-13v-12.7
		c0-7.15,5.85-13,13-13h42.409c7.15,0,13,5.85,13,13v57.007c0,7.15-5.85,13-13,13H245.176z"/>
	<path fill="#FFFFFF" d="M246.288,98.223c-5.5,0-13.496,0-17.769,0c-4.271,0-7.768,4.5-7.768,10v10.491c0,5.5,3.496,10,7.768,10
		c4.272,0,7.769,4.5,7.769,10v25.215c0,5.5,4.5,10,10,10h25.273c5.5,0,10-4.5,10-10v-25.215c0-5.5,0-14.5,0-20v-10.491
		c0-5.5-4.5-10-10-10H246.288z"/>
	<rect x="266.704" y="108.652" fill="#333333" width="4" height="12"/>
	<rect x="240.704" y="116.652" fill="#333333" width="30" height="4"/>
	<polygon fill="#333333" points="231.608,118.652 236.692,115.716 241.776,112.782 241.776,118.652 241.776,124.522 
		236.692,121.587 	"/>
	<polygon fill="#333333" points="137.747,47.167 136.93,48.703 136.93,53.864 134.291,53.864 134.291,37.063 136.93,37.063 
		136.93,44.383 140.434,37.063 143.026,37.063 139.354,44.551 143.026,53.864 140.314,53.864 	"/>
	<polygon fill="#333333" points="146.866,44.143 150.491,44.143 150.491,46.542 146.866,46.542 146.866,51.463 151.426,51.463 
		151.426,53.863 144.225,53.863 144.225,37.063 151.426,37.063 151.426,39.463 146.866,39.463 	"/>
	<polygon fill="#333333" points="155.529,48.296 152.193,37.063 154.953,37.063 156.97,44.719 158.987,37.063 161.507,37.063 
		158.171,48.296 158.171,53.864 155.531,53.864 155.531,48.296 	"/>
	<path fill="#333333" d="M165.945,36.87c2.568,0,3.889,1.536,3.889,4.225v0.648h-2.496v-0.816c0-1.2-0.479-1.656-1.319-1.656
		s-1.319,0.456-1.319,1.656c0,3.456,5.159,4.104,5.159,8.905c0,2.688-1.344,4.224-3.937,4.224c-2.592,0-3.937-1.536-3.937-4.224
		V48.68h2.496V50c0,1.2,0.528,1.632,1.368,1.632s1.368-0.432,1.368-1.632c0-3.457-5.161-4.104-5.161-8.905
		C162.056,38.407,163.376,36.87,165.945,36.87z"/>
	<polygon fill="#333333" points="187.026,46.292 181.108,46.292 181.108,52.195 179.16,52.195 179.16,46.292 173.256,46.292 
		173.256,44.329 179.16,44.329 179.16,38.426 181.108,38.426 181.108,44.329 187.026,44.329 	"/>
</g>
</svg>
